<?xml version="1.0" encoding="UTF-8" standalone="no"?>
<!-- Created with Inkscape (http://www.inkscape.org/) -->

<svg
   xmlns:dc="http://purl.org/dc/elements/1.1/"
   xmlns:cc="http://creativecommons.org/ns#"
   xmlns:rdf="http://www.w3.org/1999/02/22-rdf-syntax-ns#"
   xmlns:svg="http://www.w3.org/2000/svg"
   xmlns="http://www.w3.org/2000/svg"
   xmlns:sodipodi="http://sodipodi.sourceforge.net/DTD/sodipodi-0.dtd"
   xmlns:inkscape="http://www.inkscape.org/namespaces/inkscape"
   width="143.22787mm"
   height="94.66433mm"
   viewBox="0 0 143.22787 94.66433"
   version="1.1"
   id="svg879"
   inkscape:version="0.92.4 (5da689c313, 2019-01-14)"
   sodipodi:docname="ollie_ears.svg">
  <defs
     id="defs873">
    <clipPath
       clipPathUnits="userSpaceOnUse"
       id="clipPath18">
      <path
         d="M 0,1080 H 1920 V 0 H 0 Z"
         id="path16"
         inkscape:connector-curvature="0" />
    </clipPath>
  </defs>
  <sodipodi:namedview
     id="base"
     pagecolor="#ffffff"
     bordercolor="#666666"
     borderopacity="1.0"
     inkscape:pageopacity="0.0"
     inkscape:pageshadow="2"
     inkscape:zoom="1.4"
     inkscape:cx="139.05841"
     inkscape:cy="137.05741"
     inkscape:document-units="mm"
     inkscape:current-layer="layer1"
     showgrid="false"
     fit-margin-top="0"
     fit-margin-left="0"
     fit-margin-right="0"
     fit-margin-bottom="0"
     inkscape:window-width="1920"
     inkscape:window-height="1017"
     inkscape:window-x="-8"
     inkscape:window-y="-8"
     inkscape:window-maximized="1" />
  <metadata
     id="metadata876">
    <rdf:RDF>
      <cc:Work
         rdf:about="">
        <dc:format>image/svg+xml</dc:format>
        <dc:type
           rdf:resource="http://purl.org/dc/dcmitype/StillImage" />
        <dc:title></dc:title>
      </cc:Work>
    </rdf:RDF>
  </metadata>
  <g
     inkscape:label="Layer 1"
     inkscape:groupmode="layer"
     id="layer1"
     transform="translate(-1.7134366,-0.9595009)">
    <g
       id="g12"
       transform="matrix(0.35277777,0,0,-0.35277777,-265.33934,238.7916)">
      <g
         id="g14"
         clip-path="url(#clipPath18)">
        <g
           id="g20"
           transform="translate(1083.5273,670.7964)">
          <path
             d="M 0,0 C -1.25,2.025 1.155,4.322 3.111,2.966 4.079,2.295 5.046,1.622 6.012,0.944 c 3.842,-2.709 7.668,-5.47 11.467,-8.304 7.585,-5.685 15.07,-11.652 22.341,-18.213 7.253,-6.586 14.327,-13.733 20.829,-22.196 3.24,-4.241 6.316,-8.842 9.081,-13.94 1.395,-2.534 2.664,-5.24 3.86,-8.042 l 0.848,-2.153 0.42,-1.084 0.387,-1.115 0.76,-2.247 c 0.236,-0.763 0.456,-1.54 0.681,-2.316 1.793,-6.206 2.78,-13.077 2.787,-20.174 -0.055,-7.088 -1.121,-14.393 -3.168,-21.237 -0.255,-0.854 -0.508,-1.721 -0.784,-2.567 l -0.874,-2.507 -0.452,-1.255 -0.484,-1.217 -0.993,-2.439 c -0.345,-0.797 -0.705,-1.575 -1.066,-2.365 -0.363,-0.781 -0.721,-1.591 -1.109,-2.336 -0.768,-1.508 -1.54,-3.068 -2.368,-4.504 -3.273,-5.879 -6.949,-11.229 -10.791,-16.152 -7.711,-9.841 -16.025,-18.046 -24.433,-25.528 -4.21,-3.724 -8.455,-7.22 -12.729,-10.605 -4.274,-3.38 -8.56,-6.565 -12.873,-9.699 l -1.846,-1.341 c -21.056,-15.3 -50.528,-10.633 -65.829,10.424 -15.3,21.056 -10.633,50.529 10.424,65.829 5.447,3.958 11.691,6.618 17.874,7.965 3.942,0.841 7.875,1.713 11.673,2.671 3.793,0.959 7.53,1.971 11.116,3.064 7.144,2.184 13.835,4.664 19.5,7.371 2.834,1.351 5.403,2.747 7.681,4.16 0.606,0.354 1.097,0.708 1.659,1.064 0.291,0.179 0.515,0.356 0.777,0.535 l 0.772,0.538 0.717,0.541 0.371,0.273 0.335,0.273 0.692,0.552 0.641,0.56 c 1.746,1.502 3.165,3.108 4.451,5.08 1.202,1.984 2.252,4.355 2.818,7.232 l 0.219,1.088 0.157,1.136 0.083,0.576 0.048,0.594 0.103,1.202 c 0.069,1.637 0.101,3.347 -0.028,5.135 -0.215,3.567 -0.817,7.384 -1.746,11.301 -1.874,7.849 -4.945,16.041 -8.601,24.17 -3.677,8.139 -7.948,16.252 -12.512,24.285 -2.289,4.014 -4.652,8.012 -7.07,11.994 C 1.223,-1.985 0.612,-0.992 0,0"
             style="fill:#20352e;fill-opacity:1;fill-rule:nonzero;stroke:none"
             id="path22"
             inkscape:connector-curvature="0" />
        </g>
        <g
           id="g24"
           transform="translate(941.4189,406.5078)">
          <path
             d="m 0,0 c -15.895,2.217 -31.907,4.929 -48.071,8.448 -2.008,0.417 -4.046,0.901 -6.075,1.376 -2.033,0.484 -4.045,0.933 -6.083,1.447 -4.085,1.045 -8.133,2.056 -12.243,3.244 -4.07,1.105 -8.21,2.413 -12.302,3.683 l -6.191,2.072 c -1.022,0.334 -2.067,0.723 -3.103,1.1 l -3.108,1.137 c -8.288,3.097 -16.632,6.645 -24.972,10.972 -8.329,4.331 -16.684,9.454 -24.691,15.805 -7.995,6.284 -15.616,14.093 -21.821,23.085 -6.176,9.025 -10.756,19.273 -13.134,29.413 -0.672,2.534 -1.061,5.054 -1.52,7.561 -0.172,1.247 -0.324,2.49 -0.476,3.73 -0.071,0.619 -0.156,1.24 -0.211,1.855 l -0.133,1.834 c -0.413,4.906 -0.318,9.631 -0.086,14.242 0.608,9.174 2.148,17.761 4.245,25.844 2.095,8.09 4.667,15.748 7.489,23.14 2.826,7.39 5.907,14.515 9.128,21.484 6.451,13.929 13.428,27.268 20.485,40.486 4.156,7.773 8.346,15.5 12.519,23.23 1.502,2.785 5.748,1.253 5.125,-1.85 -1.735,-8.62 -3.484,-17.234 -5.178,-25.831 -2.87,-14.606 -5.593,-29.187 -7.574,-43.577 -0.986,-7.191 -1.776,-14.331 -2.249,-21.34 -0.474,-7.006 -0.626,-13.887 -0.314,-20.462 0.297,-6.576 1.176,-12.805 2.573,-18.383 0.76,-2.75 1.555,-5.396 2.608,-7.734 l 0.367,-0.89 c 0.128,-0.291 0.278,-0.563 0.414,-0.843 l 0.811,-1.65 c 10e-4,-0.004 0.004,-0.01 0.007,-0.014 0.628,-1.019 1.146,-2.084 1.822,-2.99 l 0.469,-0.703 c 0.151,-0.237 0.305,-0.468 0.487,-0.676 0.343,-0.431 0.678,-0.859 1.003,-1.286 0.322,-0.427 0.717,-0.792 1.056,-1.19 l 0.516,-0.583 c 0.174,-0.191 0.379,-0.36 0.562,-0.54 l 1.097,-1.062 c 0.196,-0.158 0.391,-0.316 0.581,-0.474 0.488,-0.404 1.289,-1.048 1.799,-1.425 l 0.6,-0.443 c 0.198,-0.149 0.385,-0.303 0.617,-0.434 3.405,-2.228 7.172,-4.091 11.722,-5.604 4.495,-1.525 9.565,-2.742 15.047,-3.63 5.481,-0.891 11.356,-1.458 17.437,-1.763 l 2.293,-0.103 c 0.763,-0.033 1.514,-0.077 2.307,-0.081 l 4.677,-0.086 c 3.187,0.021 6.314,-0.005 9.566,0.123 3.192,0.059 6.485,0.255 9.733,0.414 1.63,0.086 3.299,0.226 4.939,0.335 1.647,0.115 3.283,0.22 4.959,0.384 12.887,1.107 26.012,2.798 39.243,4.904 C 29.48,110.588 58.836,89.127 61.895,58.178 64.66,30.195 45.183,4.542 17.046,0.012 11.717,-0.846 6.445,-0.887 1.357,-0.204 Z"
             style="fill:#20352e;fill-opacity:1;fill-rule:nonzero;stroke:none"
             id="path26"
             inkscape:connector-curvature="0" />
        </g>
        <g
           id="g28"
           transform="translate(922.7803,561.4043)">
          <path
             d="m 0,0 c 8.015,0.065 15.218,-3.469 20.077,-9.091 3.292,-3.809 9.05,-3.762 12.279,0.099 4.769,5.7 11.914,9.35 19.928,9.415 0.138,0.001 0.275,0.001 0.411,0 3.878,-0.029 7.288,2.587 8.067,6.386 0.601,2.933 0.909,5.856 0.885,8.679 C 61.49,35.036 45.613,38.55 26.065,38.392 6.518,38.233 -9.3,34.464 -9.143,14.916 -9.12,12.183 -8.787,9.362 -8.177,6.532 -7.35,2.692 -3.927,-0.036 0,0"
             style="fill:#20352e;fill-opacity:1;fill-rule:nonzero;stroke:none"
             id="path30"
             inkscape:connector-curvature="0" />
        </g>
        <g
           id="g32"
           transform="translate(939.083,545.8203)">
          <path
             d="m 0,0 c 0,1.787 0.457,-2.567 10.147,-2.567 10.014,0 10.148,4.354 10.148,2.567 0,-5.497 -4.543,-9.954 -10.148,-9.954 C 4.543,-9.954 0,-5.497 0,0"
             style="fill:#20352e;fill-opacity:1;fill-rule:nonzero;stroke:none"
             id="path34"
             inkscape:connector-curvature="0" />
        </g>
        <g
           id="g36"
           transform="translate(885.5928,615.4771)">
          <path
             d="m 0,0 c 0,-8.603 -6.974,-13.845 -15.576,-13.845 -8.603,0 -15.576,5.242 -15.576,13.845 0,8.602 6.973,13.845 15.576,13.845 C -6.974,13.845 0,8.602 0,0"
             style="fill:#20352e;fill-opacity:1;fill-rule:nonzero;stroke:none"
             id="path38"
             inkscape:connector-curvature="0" />
        </g>
        <g
           id="g40"
           transform="translate(1044.8115,615.4771)">
          <path
             d="m 0,0 c 0,-8.603 -6.974,-3.461 -15.575,-3.461 -8.603,0 -15.576,-5.142 -15.576,3.461 0,8.602 6.973,15.576 15.576,15.576 C -6.974,15.576 0,8.602 0,0"
             style="fill:#20352e;fill-opacity:1;fill-rule:nonzero;stroke:none"
             id="path42"
             inkscape:connector-curvature="0" />
        </g>
      </g>
    </g>
  </g>
</svg>
