<svg width="143.23mm" height="129.12mm" inkscapeVersion="0.92.4 (5da689c313, 2019-01-14)" sodipodiDocname="ollie_ears_w_text.svg" version="1.1" viewBox="0 0 143.23 129.12" xmlns="http://www.w3.org/2000/svg" xmlnsCc="http://creativecommons.org/ns#" xmlnsDc="http://purl.org/dc/elements/1.1/" xmlnsRdf="http://www.w3.org/1999/02/22-rdf-syntax-ns#" xmlnsSvg="http://www.w3.org/2000/svg">
 <defs>
  <clipPath id="clipPath18">
   <path d="m0 1080h1920v-1080h-1920z"/>
  </clipPath>
 </defs>
 <g transform="translate(-1.7134 -.9595)">
  <g transform="matrix(.35278 0 0 -.35278 -265.34 238.79)">
   <g clip-path="url(#clipPath18)">
    <g transform="translate(1083.5 670.8)">
     <path d="m0 0c-1.25 2.025 1.155 4.322 3.111 2.966 0.968-0.671 1.935-1.344 2.901-2.022 3.842-2.709 7.668-5.47 11.467-8.304 7.585-5.685 15.07-11.652 22.341-18.213 7.253-6.586 14.327-13.733 20.829-22.196 3.24-4.241 6.316-8.842 9.081-13.94 1.395-2.534 2.664-5.24 3.86-8.042l0.848-2.153 0.42-1.084 0.387-1.115 0.76-2.247c0.236-0.763 0.456-1.54 0.681-2.316 1.793-6.206 2.78-13.077 2.787-20.174-0.055-7.088-1.121-14.393-3.168-21.237-0.255-0.854-0.508-1.721-0.784-2.567l-0.874-2.507-0.452-1.255-0.484-1.217-0.993-2.439c-0.345-0.797-0.705-1.575-1.066-2.365-0.363-0.781-0.721-1.591-1.109-2.336-0.768-1.508-1.54-3.068-2.368-4.504-3.273-5.879-6.949-11.229-10.791-16.152-7.711-9.841-16.025-18.046-24.433-25.528-4.21-3.724-8.455-7.22-12.729-10.605-4.274-3.38-8.56-6.565-12.873-9.699l-1.846-1.341c-21.056-15.3-50.528-10.633-65.829 10.424-15.3 21.056-10.633 50.529 10.424 65.829 5.447 3.958 11.691 6.618 17.874 7.965 3.942 0.841 7.875 1.713 11.673 2.671 3.793 0.959 7.53 1.971 11.116 3.064 7.144 2.184 13.835 4.664 19.5 7.371 2.834 1.351 5.403 2.747 7.681 4.16 0.606 0.354 1.097 0.708 1.659 1.064 0.291 0.179 0.515 0.356 0.777 0.535l0.772 0.538 0.717 0.541 0.371 0.273 0.335 0.273 0.692 0.552 0.641 0.56c1.746 1.502 3.165 3.108 4.451 5.08 1.202 1.984 2.252 4.355 2.818 7.232l0.219 1.088 0.157 1.136 0.083 0.576 0.048 0.594 0.103 1.202c0.069 1.637 0.101 3.347-0.028 5.135-0.215 3.567-0.817 7.384-1.746 11.301-1.874 7.849-4.945 16.041-8.601 24.17-3.677 8.139-7.948 16.252-12.512 24.285-2.289 4.014-4.652 8.012-7.07 11.994-0.605 0.994-1.216 1.987-1.828 2.979" fill="#20352e"/>
    </g>
    <g transform="translate(941.42 406.51)">
     <path d="m0 0c-15.895 2.217-31.907 4.929-48.071 8.448-2.008 0.417-4.046 0.901-6.075 1.376-2.033 0.484-4.045 0.933-6.083 1.447-4.085 1.045-8.133 2.056-12.243 3.244-4.07 1.105-8.21 2.413-12.302 3.683l-6.191 2.072c-1.022 0.334-2.067 0.723-3.103 1.1l-3.108 1.137c-8.288 3.097-16.632 6.645-24.972 10.972-8.329 4.331-16.684 9.454-24.691 15.805-7.995 6.284-15.616 14.093-21.821 23.085-6.176 9.025-10.756 19.273-13.134 29.413-0.672 2.534-1.061 5.054-1.52 7.561-0.172 1.247-0.324 2.49-0.476 3.73-0.071 0.619-0.156 1.24-0.211 1.855l-0.133 1.834c-0.413 4.906-0.318 9.631-0.086 14.242 0.608 9.174 2.148 17.761 4.245 25.844 2.095 8.09 4.667 15.748 7.489 23.14 2.826 7.39 5.907 14.515 9.128 21.484 6.451 13.929 13.428 27.268 20.485 40.486 4.156 7.773 8.346 15.5 12.519 23.23 1.502 2.785 5.748 1.253 5.125-1.85-1.735-8.62-3.484-17.234-5.178-25.831-2.87-14.606-5.593-29.187-7.574-43.577-0.986-7.191-1.776-14.331-2.249-21.34-0.474-7.006-0.626-13.887-0.314-20.462 0.297-6.576 1.176-12.805 2.573-18.383 0.76-2.75 1.555-5.396 2.608-7.734l0.367-0.89c0.128-0.291 0.278-0.563 0.414-0.843l0.811-1.65c1e-3 -4e-3 4e-3 -0.01 7e-3 -0.014 0.628-1.019 1.146-2.084 1.822-2.99l0.469-0.703c0.151-0.237 0.305-0.468 0.487-0.676 0.343-0.431 0.678-0.859 1.003-1.286 0.322-0.427 0.717-0.792 1.056-1.19l0.516-0.583c0.174-0.191 0.379-0.36 0.562-0.54l1.097-1.062c0.196-0.158 0.391-0.316 0.581-0.474 0.488-0.404 1.289-1.048 1.799-1.425l0.6-0.443c0.198-0.149 0.385-0.303 0.617-0.434 3.405-2.228 7.172-4.091 11.722-5.604 4.495-1.525 9.565-2.742 15.047-3.63 5.481-0.891 11.356-1.458 17.437-1.763l2.293-0.103c0.763-0.033 1.514-0.077 2.307-0.081l4.677-0.086c3.187 0.021 6.314-5e-3 9.566 0.123 3.192 0.059 6.485 0.255 9.733 0.414 1.63 0.086 3.299 0.226 4.939 0.335 1.647 0.115 3.283 0.22 4.959 0.384 12.887 1.107 26.012 2.798 39.243 4.904 30.712 4.887 60.068-16.574 63.127-47.523 2.765-27.983-16.712-53.636-44.849-58.166-5.329-0.858-10.601-0.899-15.689-0.216z" fill="#20352e"/>
    </g>
    <g transform="translate(922.78 561.4)">
     <path d="m0 0c8.015 0.065 15.218-3.469 20.077-9.091 3.292-3.809 9.05-3.762 12.279 0.099 4.769 5.7 11.914 9.35 19.928 9.415 0.138 1e-3 0.275 1e-3 0.411 0 3.878-0.029 7.288 2.587 8.067 6.386 0.601 2.933 0.909 5.856 0.885 8.679-0.157 19.548-16.034 23.062-35.582 22.904-19.547-0.159-35.365-3.928-35.208-23.476 0.023-2.733 0.356-5.554 0.966-8.384 0.827-3.84 4.25-6.568 8.177-6.532" fill="#20352e"/>
    </g>
    <g transform="translate(939.08 545.82)">
     <path d="m0 0c0 1.787 0.457-2.567 10.147-2.567 10.014 0 10.148 4.354 10.148 2.567 0-5.497-4.543-9.954-10.148-9.954-5.604 0-10.147 4.457-10.147 9.954" fill="#20352e"/>
    </g>
    <g transform="translate(885.59 615.48)">
     <path d="m0 0c0-8.603-6.974-13.845-15.576-13.845-8.603 0-15.576 5.242-15.576 13.845 0 8.602 6.973 13.845 15.576 13.845 8.602 0 15.576-5.243 15.576-13.845" fill="#20352e"/>
    </g>
    <g transform="translate(1044.8 615.48)">
     <path d="m0 0c0-8.603-6.974-3.461-15.575-3.461-8.603 0-15.576-5.142-15.576 3.461 0 8.602 6.973 15.576 15.576 15.576 8.601 0 15.575-6.974 15.575-15.576" fill="#20352e"/>
    </g>
   </g>
  </g>
  <path d="m50.506 130.06c-1.4889-0.20268-2.5116-0.48835-3.4655-0.96806-2.0489-1.0304-3.463-2.8124-4.0815-5.1435-0.19823-0.74707-0.2187-0.98297-0.21834-2.5164 3.2e-4 -1.3822 0.0314-1.8192 0.16975-2.3863 0.22183-0.90925 0.43858-1.48 0.82341-2.1681 1.1468-2.0507 3.0838-3.4332 5.535-3.9506 1.1497-0.24269 3.2289-0.23966 4.3644 6e-3 1.6348 0.35419 2.9308 1.0143 4.0396 2.0574 1.2674 1.1923 2.0466 2.6584 2.379 4.4766 0.39465 2.1586 0.12319 4.4206-0.73563 6.1299-1.1404 2.2698-3.12 3.7363-5.7936 4.292-0.62722 0.13038-2.5244 0.2378-3.0165 0.1708zm1.8248-4.5973c0.93542-0.24365 1.8352-0.9956 2.2195-1.8549 0.58629-1.311 0.53778-3.4029-0.10698-4.6126-1.0935-2.0517-3.8373-2.4336-5.4248-0.75511-0.80414 0.85026-1.0724 1.6378-1.0724 3.1486 0 1.4809 0.31207 2.4145 1.0539 3.1528 0.91919 0.91476 2.1009 1.2416 3.3307 0.92127zm43.427 4.5612c-3.0621-0.40648-5.2831-1.9681-6.466-4.5463-0.66645-1.4526-0.93503-3.3001-0.75424-5.1882 0.37614-3.9282 2.6195-6.5426 6.315-7.3596 1.0914-0.24128 3.2354-0.24128 4.3268 0 3.1314 0.69226 5.2076 2.6516 5.9892 5.6523 0.29377 1.1278 0.38285 3.0215 0.16842 3.5803-0.0473 0.12341-0.64092 0.13752-5.8355 0.13871-3.1806 6.6e-4 -5.8263 0.03-5.8794 0.0651-0.0667 0.044-0.0751 0.23962-0.0272 0.63144 0.15788 1.2923 0.75684 2.1992 1.7464 2.6443 1.03 0.46327 2.3781 0.37341 3.2316-0.21541 0.46471-0.3206 0.62094-0.50264 0.90775-1.0578l0.23953-0.46361 2.7046-0.0229c3.1085-0.0264 2.8546-0.11408 2.5232 0.8717-0.88033 2.6192-3.0069 4.4813-5.8276 5.1029-0.87606 0.19307-2.543 0.27592-3.3626 0.16712zm4.3986-10.514c-0.0975-1.163-0.80606-2.1013-1.894-2.5082-0.43393-0.16228-0.63423-0.1834-1.4393-0.15181-1.1384 0.0447-1.5702 0.22097-2.2878 0.93397-0.52402 0.52067-0.83115 1.1644-0.92217 1.933l-0.0489 0.41312h6.6441zm-37.199-0.89975v-11.238l5.163 0.046 0.044 22.431h-5.2071zm8.8509 1e-3v-11.237h5.1196v22.474h-5.1196zm8.7641 2.7767v-8.4604h5.1196v16.921h-5.1196zm2.0392-11.066c-0.59499-0.0922-1.0245-0.291-1.44-0.66634-0.4961-0.4482-0.70566-0.90489-0.75386-1.643-0.035-0.5362-0.0106-0.68193 0.1821-1.0847 0.12242-0.25588 0.2737-0.5254 0.3362-0.59893 0.43935-0.51695 1.4608-0.95097 2.2382-0.95097 0.57946 0 1.4854 0.29797 1.9248 0.63305 0.21049 0.16055 0.47273 0.48031 0.61107 0.74512 0.20442 0.39132 0.24203 0.56754 0.24043 1.1265-2e-3 0.79784-0.17552 1.2357-0.68415 1.7293-0.58565 0.56835-1.68 0.86102-2.6547 0.70993z" fill="#20352f" fill-opacity=".94118" stroke-width=".086773"/>
 </g>
</svg>
